<svg xmlns="http://www.w3.org/2000/svg" xmlns:xlink="http://www.w3.org/1999/xlink" id="Ebene_1" x="0px" y="0px" viewBox="0 0 377.4 98.1" style="enable-background:new 0 0 377.4 98.1;" xml:space="preserve"><style type="text/css">	.Schlagschatten{fill:none;}	.Abgerundete_x0020_Ecken_x0020_2_x0020_Pt_x002E_{fill:#FFFFFF;stroke:#000000;stroke-miterlimit:10;}	.Interaktiv_x0020_X_x0020_spiegeln{fill:none;}	.Weich_x0020_abgeflachte_x0020_Kante{fill:url(#SVGID_1_);}	.Abenddämmerung{fill:#FFFFFF;}	.Laub_GS{fill:#FFDD00;}	.Pompadour_GS{fill-rule:evenodd;clip-rule:evenodd;fill:#51AEE2;}	.st0{fill:#010202;}	.st1{fill:none;stroke:#802C13;stroke-width:11;stroke-miterlimit:10;}</style><linearGradient id="SVGID_1_" gradientUnits="userSpaceOnUse" x1="-131.2429" y1="-86.0173" x2="-130.5358" y2="-85.3102">	<stop offset="0" style="stop-color:#E6E6EB"/>	<stop offset="0.1738" style="stop-color:#E2E2E6"/>	<stop offset="0.352" style="stop-color:#D5D4D8"/>	<stop offset="0.5323" style="stop-color:#C0BFC2"/>	<stop offset="0.7139" style="stop-color:#A4A2A4"/>	<stop offset="0.8949" style="stop-color:#828282"/>	<stop offset="1" style="stop-color:#6B6E6E"/></linearGradient><g>	<path class="st0" d="M12.2,4.6v75.3H0.3V4.6H12.2z"/>	<path class="st0" d="M35.4,29c6.9,0,12,2.3,15.4,6.8l0.6-5.8h10.7v49.9H51.4l-0.6-5.8c-3.4,4.6-8.5,6.8-15.4,6.8  c-6.7,0-12.2-2.4-16.4-7.3c-4.2-4.9-6.3-11.1-6.3-18.6c0-7.6,2.1-13.8,6.3-18.7C23.2,31.4,28.7,29,35.4,29z M38,39.5  c-3.9,0-7.1,1.4-9.6,4.2c-2.5,2.8-3.7,6.6-3.7,11.2c0,4.7,1.2,8.4,3.7,11.2c2.5,2.8,5.7,4.2,9.6,4.2c5,0,9.1-2.5,12.2-7.4V46.9  C47.1,42,43,39.5,38,39.5z"/>	<path class="st0" d="M73.4,16.6c7-7.2,15.9-10.8,26.5-10.8c10.6,0,19.5,3.6,26.5,10.8c7,7.2,10.6,16.2,10.6,27  c0,10.9-3.5,19.9-10.6,27c-7,7.1-15.9,10.7-26.5,10.7c-10.7,0-19.6-3.5-26.6-10.7c-7-7.1-10.5-16.1-10.5-27  C62.9,32.7,66.4,23.7,73.4,16.6z M99.9,17.2c-7.2,0-13.1,2.5-17.6,7.4c-4.6,5-6.8,11.3-6.8,18.9c0,7.7,2.3,14,6.8,18.9  c4.6,4.9,10.4,7.4,17.6,7.4c7.1,0,13-2.5,17.6-7.4c4.6-4.9,6.9-11.2,6.9-18.9c0-7.7-2.3-14-6.9-18.9  C112.9,19.7,107.1,17.2,99.9,17.2z"/>	<path class="st0" d="M149.7,4.6v75.3h-11.9V4.6H149.7z"/>	<path class="st0" d="M173,29c6.9,0,12,2.3,15.4,6.8l0.6-5.8h10.7v49.9h-10.7l-0.6-5.8c-3.4,4.6-8.5,6.8-15.4,6.8  c-6.7,0-12.2-2.4-16.4-7.3c-4.2-4.9-6.3-11.1-6.3-18.6c0-7.6,2.1-13.8,6.3-18.7C160.7,31.4,166.2,29,173,29z M175.5,39.5  c-3.9,0-7.1,1.4-9.6,4.2c-2.5,2.8-3.7,6.6-3.7,11.2c0,4.7,1.2,8.4,3.7,11.2c2.5,2.8,5.7,4.2,9.6,4.2c5,0,9.1-2.5,12.2-7.4V46.9  C184.6,42,180.6,39.5,175.5,39.5z"/>	<path class="st0" d="M292.6,7.1l-29,73.9h-0.4l-17.8-44l-17.7,44h-0.4L198.1,7.1h13.8l16,43.6l17.3-43.6h0.4l17.3,43.6L279,7.1  H292.6z"/>	<path class="st0" d="M303.1,29c7.3,0,13,2.4,16.9,7.2c4,4.8,5.9,10.9,5.9,18.3v4.2h-35.3c0.1,4,1.4,7,3.7,9.1  c2.3,2.1,5.5,3.2,9.7,3.2c5.5,0,9.6-1.9,12.4-5.7l8.2,6.7c-5,6-11.9,9-20.7,9c-7.7,0-13.8-2.4-18.4-7.2c-4.6-4.8-6.9-11-6.9-18.6  c0-7.5,2.3-13.8,6.9-18.7C290.1,31.5,295.9,29,303.1,29z M311.1,41.7c-2-2.1-4.7-3.2-8.2-3.2c-3.5,0-6.4,1.1-8.6,3.2  c-2.2,2.1-3.4,4.9-3.6,8.4h23.6C314.1,46.6,313.1,43.8,311.1,41.7z"/>	<path class="st0" d="M338.8,4.6v30.3c3.4-4,8.3-5.9,14.8-5.9c6.7,0,12.1,2.4,16.3,7.3c4.2,4.9,6.3,11.1,6.3,18.7  c0,7.5-2.1,13.7-6.3,18.6c-4.2,4.9-9.7,7.3-16.3,7.3c-6.9,0-12.1-2.3-15.5-6.8l-0.5,5.8h-10.7V4.6H338.8z M351,39.5  c-5.2,0-9.2,2.5-12.2,7.4V63c3,5,7,7.4,12.2,7.4c3.9,0,7.1-1.4,9.6-4.2c2.5-2.8,3.7-6.6,3.7-11.2c0-4.7-1.2-8.4-3.7-11.2  C358.1,40.9,354.9,39.5,351,39.5z"/></g><line class="st1" x1="0.2" y1="90.2" x2="199.6" y2="90.2"/></svg>